# xmcd
#
# Track frame offsets:
#	150
#	22205
#	35708
#	58363
#	63464
#	83933
#	104613
#	117359
#	132840
#	139139
#	159843
#	184034
#	198578
#	217765
#	231005
#
# Disc length: 3413 seconds
#
# Revision: 1
# Processed by: cddbd v1.5.2PL0 Copyright (c) Steve Scherf et al.
# Submitted via: audiograbber 1.83.01
#
DISCID=dd0d530f
DTITLE=Blues Trio - The Smallest Trio In The World
DYEAR=2010
DGENRE=Blues
TTITLE0=Belgrade Blues
TTITLE1=Rule The Road (Live)
TTITLE2=Spoonful (Live)
TTITLE3=Tallahassee Woman (Live)
TTITLE4=This Train (Live)
TTITLE5=Room To Move (Live)
TTITLE6=Balkan Blues Theme (Live)
TTITLE7=Spirit Of That Time (Studio Demo)
TTITLE8=Doc's Guitar
TTITLE9=Big Mama Boogie (Live)
TTITLE10=House Of The Rising Sun (Live)
TTITLE11=Bitola
TTITLE12=Spirit Of That Time (Live)
TTITLE13=Balkan Blues Theme (Studio Demo)
TTITLE14=Belgrade Blues (alt. take)
EXTD=Digitally remastered from original analog tapes with 4 bonus tracks previo
EXTD=sly unreleased. Original LP published in 1991 was dedicated to John Paul H
EXTD=ammond.\n\n
EXTT0=
EXTT1=
EXTT2=
EXTT3=
EXTT4=
EXTT5=
EXTT6=
EXTT7=
EXTT8=
EXTT9=
EXTT10=
EXTT11=
EXTT12=
EXTT13=
EXTT14=
PLAYORDER=
